<?xml version="1.0" encoding="utf-8"?>
<!-- Generator: Adobe Illustrator 26.3.1, SVG Export Plug-In . SVG Version: 6.00 Build 0)  -->
<svg version="1.1" id="OBJECTS" xmlns="http://www.w3.org/2000/svg" xmlns:xlink="http://www.w3.org/1999/xlink" x="0px" y="0px"
	 viewBox="0 0 129.5 178" style="enable-background:new 0 0 129.5 178;" xml:space="preserve">
<style type="text/css">
	.st0{fill:#FFA07F;}
	.st1{fill:#FF7D6F;}
	.st2{fill:#CD4A57;}
	.st3{fill:#FDBD8E;}
	.st4{fill:#FFF0E7;}
	.st5{fill:#0F3358;}
	.st6{fill:#072743;}
	.st7{fill:#204D74;}
	.st8{fill:#6C3509;}
	.st9{fill:#FCEACC;}
	.st10{fill:#E9CDAD;}
	.st11{fill:#F23336;}
	.st12{fill:#171228;}
	.st13{fill:#002346;}
	.st14{fill:#FFBF90;}
	.st15{fill:#CF4A57;}
	.st16{fill:#763231;}
	.st17{fill:#161818;}
	.st18{fill:#FC5B68;}
	.st19{fill:#FFFFFF;}
	.st20{fill:#582121;}
	.st21{fill:#853E3E;}
	.st22{fill:#D9F1F0;}
</style>
<g>
	<g>
		<g>
			<g>
				<path class="st0" d="M129.5,45c0.2,0.6-7.2,5.1-8.1,5.2l-1.3-0.1l-3.6,2.3c0,0-0.6-0.5-1.1-1.3c-0.3-0.4-0.5-1-0.7-1.5
					c-0.1-0.3-0.1-0.7-0.1-1.1c0-0.2,1.8-1.5,1.8-1.5s-1-2.8,0-4.1c0.6-0.8,1.2-1.6,1.4-2.5c0.1-0.5,0.2-1,0.4-1.5
					c0.2-0.5,0.5-0.9,1-1.1c0.1,0,0.1,0,0.2,0c0.1,0,0.2,0.2,0.2,0.3c0,0,0,0,0,0c0.4,1.4,0.3,2.9-0.3,4.2c0,0,4.5-1.8,5.5-2.7
					c0,0,2.6-1.3,3-0.8c0.1,0.2,0.2,0.3,0.2,0.5c0.1,0.3,0,0.4,0,0.4s-5.2,3.5-5.3,3.7c-0.1,0.3,5.2-1.7,5.7-1.5
					c0.1,0.1,0.2,0.2,0.3,0.4c0.1,0.2,0.1,0.4,0.1,0.7c0,0.4,0,0.7,0,0.7s0,0.1,0.1,0.2c0.1,0.1,0.2,0.4,0.3,0.6
					C129.4,44.7,129.4,44.8,129.5,45z"/>
				<path class="st1" d="M129.5,45c0.2,0.6-7.2,5.1-8.1,5.2l-1.3-0.1l-3.6,2.3c0,0-0.6-0.5-1.1-1.3c1.6-0.8,3-2,4-3.4
					c1-1.4,1.6-3,2.6-4.3c0.7-0.8,1.5-1.5,2.4-2.1c0.9-0.6,1.9-1.2,2.9-1.7c0.3-0.1,0.5-0.3,0.7-0.3c0.1,0.3,0,0.4,0,0.4
					s-5.2,3.5-5.3,3.7c-0.1,0.3,5.2-1.7,5.7-1.5c0.1,0.1,0.2,0.2,0.3,0.4c0.1,0.2,0.1,0.4,0.1,0.7c0,0.4,0,0.7,0,0.7s0,0.1,0.1,0.2
					c0.1,0.1,0.2,0.4,0.3,0.6C129.4,44.7,129.4,44.8,129.5,45z"/>
				<g>
					<g>
						<path class="st2" d="M128.9,43.1c-0.1,0.1-0.3,0.1-0.4,0.2c-0.9,0.4-1.7,0.7-2.4,0.8c-0.6,0.1-1,0.2-1,0.2
							c0,0,0.4-0.2,0.9-0.5c0.6-0.3,1.3-0.7,2.2-1.1c0.2-0.1,0.4-0.2,0.6-0.3C128.9,42.6,128.9,42.8,128.9,43.1z"/>
					</g>
					<g>
						<path class="st2" d="M129.3,44.5c-1.4,0.7-2.6,0.9-2.7,1c0.1-0.1,1.1-0.9,2.4-1.6C129.1,44.1,129.2,44.3,129.3,44.5z"/>
					</g>
				</g>
				<path class="st3" d="M119.7,38c-0.1,0.1-0.1,0.2-0.2,0.2c-0.6,0.7-0.7,1.6-1,2.3c-0.4,1.1-1.3,2-1.5,3.2c-0.2,1,0.1,2,0.2,3
					c0.1,0.3,0.1,0.6,0,0.9c-0.1,0.2-0.3,0.4-0.5,0.5c-0.6,0.5-1.3,0.9-1.9,1.4c-0.1-0.3-0.1-0.7-0.1-1.1c0-0.2,1.8-1.5,1.8-1.5
					s-1-2.8,0-4.1c0.6-0.8,1.2-1.6,1.4-2.5c0.1-0.5,0.2-1,0.4-1.5c0.2-0.5,0.5-0.9,1-1.1c0.1,0,0.1,0,0.2,0
					C119.5,37.7,119.6,37.9,119.7,38z"/>
				<path class="st2" d="M120.3,43.4c0.6,0.6,0.9,1.6,0.8,2.5c-0.1,0.9-0.4,1.8-1,2.5c0-0.7,0.4-1.5,0.5-2.2
					C120.7,45.6,120.8,43.9,120.3,43.4z"/>
			</g>
			<polygon class="st4" points="118.9,51.8 116.2,53.1 113.1,47.8 115.3,45.9 			"/>
		</g>
		<g>
			<path class="st5" d="M73,39.5c2.4-0.3,4.5-0.5,5-0.3c0.9,0.5,6.9,8.7,6.9,8.7c2.8,4.1,5.6,9,5.6,9c2.7-2.3,22.8-11.8,22.8-11.8
				l0.8,1.3l3.8,6.4l1.2,2c0,0-25.5,15.6-31.8,12.8c-3.1-1.3-8.9-7.7-14.1-14V39.5z"/>
			<path class="st6" d="M73,52.4c6.2,6.8,13.2,14.1,15,14.2c2.9,0.2,23-10.2,29.8-13.8l1.2,2c0,0-25.5,15.6-31.8,12.8
				c-3.1-1.3-8.9-7.7-14.1-14V52.4z"/>
			<path class="st7" d="M87.6,61.6c-0.1-0.1,0-0.3,0-0.5c0.5-0.9,1.1-1.7,1.8-2.4c0.1-0.1,0.3-0.4,0.5-0.6l-5-8.9
				c-2.4-4.3-5.6-8.2-9.3-11.5l0,0c6.9,0.8,14.8,19.3,14.8,19.3c2.7-2.3,22.8-11.8,22.8-11.8l0.8,1.3c-4.8,2.5-17.6,9-22.3,11.7
				c0.5,1.1,0.6,2.3,0.5,3.5c-0.8-0.5-1.1-1.4-1.4-2.3c-0.9,0.7-1.8,1.5-2.7,2.2C88,61.6,87.8,61.7,87.6,61.6z"/>
		</g>
	</g>
	<g>
		<g>
			<g>
				<path class="st0" d="M0,43c-0.1,0.6,8.4,4.4,9.3,4.4l1.3-0.2l4.1,2c0,0,0.5-0.6,1-1.5c0.2-0.5,0.4-1.1,0.5-1.7
					c0-0.4,0.1-0.7,0-1.1c0-0.2-2.2-1.4-2.2-1.4s0.7-3.1-0.6-4.4c-0.7-0.7-1.5-1.5-1.9-2.5c-0.2-0.5-0.4-1-0.6-1.5
					c-0.3-0.5-0.7-0.9-1.2-1c-0.1,0-0.1,0-0.2,0c-0.1,0-0.2,0.2-0.2,0.3c0,0,0,0,0,0c-0.2,1.5,0.1,3.1,0.9,4.4c0,0-5-1.3-6.2-2.1
					c0,0-3-1-3.3-0.5c-0.1,0.2-0.2,0.4-0.2,0.5c0,0.3,0,0.5,0,0.5s6,3,6.1,3.3c0.1,0.3-5.8-1.1-6.2-0.8c-0.1,0.1-0.2,0.3-0.2,0.5
					c0,0.2,0,0.5,0,0.7c0,0.4,0.1,0.7,0.1,0.7s0,0.1-0.1,0.2c-0.1,0.2-0.1,0.4-0.2,0.7C0.1,42.7,0,42.8,0,43z"/>
				<path class="st1" d="M0,43c-0.1,0.6,8.4,4.4,9.3,4.4l1.3-0.2l4.1,2c0,0,0.5-0.6,1-1.5c-1.8-0.6-3.4-1.7-4.7-3.1
					c-1.2-1.4-2.1-3-3.4-4.3c-0.8-0.8-1.8-1.4-2.8-1.9c-1.1-0.5-2.2-1-3.3-1.4c-0.3-0.1-0.6-0.2-0.8-0.2c0,0.3,0,0.5,0,0.5
					s6,3,6.1,3.3c0.1,0.3-5.8-1.1-6.2-0.8c-0.1,0.1-0.2,0.3-0.2,0.5c0,0.2,0,0.5,0,0.7c0,0.4,0.1,0.7,0.1,0.7s0,0.1-0.1,0.2
					c-0.1,0.2-0.1,0.4-0.2,0.7C0.1,42.7,0,42.8,0,43z"/>
				<g>
					<g>
						<path class="st2" d="M0.3,40.9C0.5,40.9,0.7,41,0.8,41c1,0.3,1.9,0.5,2.6,0.5c0.6,0.1,1.1,0.1,1.1,0.1c0,0-0.4-0.2-1-0.4
							C2.9,41,2,40.7,1,40.4c-0.2-0.1-0.5-0.1-0.7-0.2C0.3,40.4,0.3,40.6,0.3,40.9z"/>
					</g>
					<g>
						<path class="st2" d="M0.1,42.5c1.6,0.5,2.9,0.6,3,0.7c-0.1,0-1.2-0.8-2.8-1.3C0.3,42,0.2,42.2,0.1,42.5z"/>
					</g>
				</g>
				<path class="st3" d="M9.5,34.2c0.1,0.1,0.2,0.1,0.3,0.2c0.7,0.6,0.9,1.6,1.4,2.4c0.6,1.1,1.6,2,2,3.2c0.3,1,0.2,2.1,0.1,3.2
					c0,0.3,0,0.7,0.2,1c0.1,0.2,0.4,0.4,0.6,0.5c0.7,0.4,1.5,0.8,2.2,1.2c0-0.4,0.1-0.7,0-1.1c0-0.2-2.2-1.4-2.2-1.4
					s0.7-3.1-0.6-4.4c-0.7-0.7-1.5-1.5-1.9-2.5c-0.2-0.5-0.4-1-0.6-1.5c-0.3-0.5-0.7-0.9-1.2-1c-0.1,0-0.1,0-0.2,0
					C9.6,34,9.5,34.1,9.5,34.2z"/>
				<path class="st2" d="M9.5,40.1c-0.6,0.8-0.7,1.8-0.5,2.8c0.2,0.9,0.7,1.9,1.4,2.6c-0.1-0.8-0.7-1.5-0.8-2.3
					C9.4,42.4,9.1,40.7,9.5,40.1z"/>
			</g>
			<polygon class="st4" points="12.1,48.9 15.2,49.8 17.7,43.8 15.2,42 			"/>
		</g>
		<g>
			<path class="st5" d="M57.9,35.7c-2.4-0.3-4.5-0.5-5-0.3c-0.9,0.5-6.9,8.7-6.9,8.7c-2.8,4.1-5.6,9-5.6,9
				c-2.7-2.3-22.8-11.8-22.8-11.8l-0.8,1.3l-3.8,6.4l-1.2,2c0,0,25.5,15.6,31.8,12.8c3.1-1.3,8.9-7.7,14.1-14V35.7z"/>
			<path class="st6" d="M57.9,48.6c-6.2,6.8-13.2,14.1-15,14.2c-2.9,0.2-23-10.2-29.8-13.8l-1.2,2c0,0,25.5,15.6,31.8,12.8
				c3.1-1.3,8.9-7.7,14.1-14V48.6z"/>
			<path class="st7" d="M43.2,57.8c0.1-0.1,0-0.3,0-0.5c-0.5-0.9-1.1-1.7-1.8-2.4c-0.1-0.1-0.3-0.4-0.5-0.6l5-8.9
				c2.4-4.3,5.6-8.2,9.3-11.5l0,0c-6.9,0.8-14.8,19.3-14.8,19.3c-2.7-2.3-22.8-11.8-22.8-11.8l-0.8,1.3c4.8,2.5,17.6,9,22.3,11.7
				c-0.5,1.1-0.6,2.3-0.5,3.5c0.8-0.5,1.1-1.4,1.4-2.3c0.9,0.7,1.8,1.5,2.7,2.2C42.9,57.9,43.1,58,43.2,57.8z"/>
		</g>
		<g>
			<g>
				<path class="st8" d="M60.1,162.6c0,0-0.4,3.8,0,4.5c0.4,0.6,1.6,7.7,1.6,8.5c0,0.9-6.7,2.6-8,2.4c-1.3-0.1-6-3.4-6-3.4
					s3.5-13,4.5-13.3C53.2,161,60.1,162.6,60.1,162.6z"/>
				<g>
					<path class="st8" d="M81.1,166.3c0,0,1.2,3,2.6,4.2c1.4,1.2,6.9,3.4,8.3,4.1c1,0.5,0.7,1.8,0.7,1.8H78.7c0,0-2.4-3.7-3.1-3.2
						c-0.7,0.5-1,2.7-1,2.7l-4.8,0c0,0,0.9-9.8,1.9-10.5C72.8,164.7,81.1,166.3,81.1,166.3z"/>
				</g>
				<g>
					<g>
						<path class="st5" d="M47.8,165.4c0.2,0.1,0.3,0.1,0.5,0.2c8,3,15.3,1,15.3,1l1.1-36.7l5-28.6l0.3-1.8l0.1,1.8l1.3,27.3
							l-2.5,38.7c0.5,0.2,1,0.4,1.5,0.5c6.8,2,15.6-0.5,15.6-0.5s-1-34-0.8-36.5c0.1-1.6-1-19-1.8-30.9c-0.4-6.4-0.8-11.3-0.8-11.3
							H52.9l0.1,9.9l-0.8,30.1C52.3,128.6,47.2,165.2,47.8,165.4z"/>
						<path class="st6" d="M52.9,88.6l0.1,9.9c6.3,1.9,11.9,2.7,16.6,2.9l0.3-1.8l0.1,1.8c6,0.2,10.5-0.7,13.3-1.4
							c-0.4-6.4-0.8-11.3-0.8-11.3H52.9z"/>
					</g>
					<path class="st6" d="M68.9,167.3c0.5,0.2,1,0.4,1.5,0.5l2.9-39.3l-2.8-32.9l-0.5,3.8l0.1,1.8l1.3,27.3L68.9,167.3z"/>
					<path class="st6" d="M47.8,165.4c0.2,0.1,0.3,0.1,0.5,0.2l6.1-37l0.4-40h-1.7l0.1,9.9l-0.8,30.1
						C52.3,128.6,47.2,165.2,47.8,165.4z"/>
				</g>
			</g>
			<g>
				<g>
					<g>
						<g>
							<path class="st0" d="M60.6,31.2c0.2,0.2,8.1,6.1,8.1,6.1s-0.2-3.6-0.3-5.5c0-0.6,0-1,0-1.1c0-0.8,0.6-4,0.6-4l-8-3.7
								c0,0-0.1,1.7-0.2,3.5C60.7,28.6,60.5,31.1,60.6,31.2z"/>
							<path class="st1" d="M60.8,26.4c2.2,1.6,7.1,5.2,7.6,5.3c0,0,0,0,0,0c0-0.6,0-1,0-1.1c0-0.8,0.6-4,0.6-4l-8-3.7
								C61.1,22.9,60.9,24.6,60.8,26.4z"/>
						</g>
					</g>
					<g>
						<path class="st9" d="M57.9,33c0.8,0.7,2.8,3.9,4.9,7.6c0.7,1.1,1.3,2.3,2,3.5c3,5.2,5.7,10.2,5.7,10.2
							c0.4-1.3,0.6-3.6,0.8-6.3v0c0.1-2,0.1-4.1,0.1-6c0-0.3,0-0.7,0-1c0-2.9-0.1-5.3-0.2-5.7c-0.3-1.1-2.6-2.4-2.6-2.4l0.2,4.2
							l-3.2-2.7l-4.9-4L57.9,33z"/>
						<path class="st10" d="M57.9,33c0.8,0.7,2.8,3.9,4.9,7.6l2.6,2.1l3.5-4.3l2.5,3.7c0-0.3,0-0.7,0-1c0-2.9-0.1-5.3-0.2-5.7
							c-0.3-1.1-2.6-2.4-2.6-2.4l0.2,4.2l-3.2-2.7l-4.9-4L57.9,33z"/>
						<path class="st4" d="M68.5,33l0.2,4.2l2.6,3.9c0-2.9-0.1-5.3-0.2-5.7C70.8,34.4,68.5,33,68.5,33z"/>
						<path class="st11" d="M67.7,39.5l-1.1,7.8c3,5.2,3.9,7.1,3.9,7.1c0.4-1.3,0.6-3.6,0.8-6.3v0l-1.9-8.4l0.4-0.9l-1-1.6l-1.3,1.2
							L67.7,39.5z"/>
						<polygon class="st4" points="68.7,37.2 65,41.9 57.9,33 60.6,30.5 						"/>
					</g>
					<path class="st5" d="M50.7,92.7h35.3c0,0-3.5-46.1-6.5-51.5c-0.6-1-1.3-1.9-2.1-2.6c-0.1-0.1-0.2-0.2-0.3-0.2
						c-2.5-2.2-5.4-2.8-5.9-2.8c0,0-0.1,0-0.1,0l-0.6,18.9c0,0-4.4-9.1-5.9-11.6c-4-6.9-6.8-9.8-6.8-9.8c-1.1,0-2,0.3-2.9,0.9
						C44.3,41.5,50.7,92.7,50.7,92.7z"/>
					<path class="st12" d="M76.7,49.7l-2-3.5l3.4-2.7l-1-5.3c-2.5-2.2-5.4-2.8-5.9-2.8c0,0-0.1,0-0.1,0l-0.6,18.9L76.7,49.7z"/>
					<path class="st12" d="M60.4,42.8l-3.1,4l14.9,10.9l-1.7-3.3c0,0-4.4-9.1-5.9-11.6c-4-6.9-6.8-9.8-6.8-9.8c-1.1,0-2,0.3-2.9,0.9
						l-0.7,3.1L60.4,42.8z"/>
					<path class="st12" d="M71.5,92.7h0.9c1.1-13.6-0.2-34.9-0.2-34.9l-0.8-1.1C72.7,74.2,71.9,87.6,71.5,92.7z"/>
					<path class="st13" d="M83.2,84.7c0,0-5.3-0.2-6.9,0.3v2.1l3.5,1.5l3.7-1.9L83.2,84.7z"/>
					<path class="st13" d="M66.2,84.7c0,0-8.9-0.2-11.6,0.3v2.1l5.8,1.5l6.2-1.9L66.2,84.7z"/>
					<circle class="st12" cx="69" cy="79.3" r="1.2"/>
					<path class="st12" d="M67.9,71.5c0,0.6,0.5,1.2,1.2,1.2c0.6,0,1.2-0.5,1.2-1.2c0-0.6-0.5-1.2-1.2-1.2
						C68.4,70.3,67.9,70.8,67.9,71.5z"/>
					<path class="st12" d="M67.9,64.2c0,0.6,0.5,1.2,1.2,1.2c0.6,0,1.2-0.5,1.2-1.2c0-0.6-0.5-1.2-1.2-1.2
						C68.4,63,67.9,63.6,67.9,64.2z"/>
				</g>
				<g>
					<g>
						<path class="st14" d="M61.3,23.6c-1.8-0.1-3.1-1.2-3.8-2.1c-0.2-0.2-0.3-0.4-0.4-0.6c-0.5-0.9-0.7-4.2,0.7-5
							c0.9-0.5,1.6,0.2,1.9,0.7c0,0,0,0,0,0c0.1,0.2,0.2,0.4,0.2,0.4L61.3,23.6z"/>
						<path class="st0" d="M61.3,23.6c-1.8-0.1-3.1-1.2-3.8-2.1c-0.1-0.1-0.1-0.2-0.2-0.3c-0.5-0.9-0.7-4.2,0.7-5
							c0.8-0.4,1.3,0,1.7,0.4c0,0,0,0,0,0c0.1,0.2,0.2,0.4,0.2,0.4L61.3,23.6z"/>
						<path class="st1" d="M57.3,18.5c-0.1,0.3,0,0.5,0.1,0.8c0.4,1.1,1.5,1.9,2.5,2.7c-0.3-0.5-0.4-1.1-0.4-1.7
							c0-0.2,0.1-0.4,0.1-0.6C59.5,18.9,57.7,17,57.3,18.5z"/>
						<g>
							<path class="st15" d="M60.4,22.3C60.4,22.3,60.3,22.3,60.4,22.3c-0.1-0.1-0.2-0.1-0.2-0.1c-0.1-0.1-0.3-0.2-0.5-0.5
								c-0.2-0.2-0.3-0.5-0.4-0.9c-0.1-0.3-0.1-0.8,0.1-1.1c0,0,0-0.1,0.1-0.1l0,0c0,0,0,0,0,0v0h0l0,0c0,0,0,0,0,0l0,0l0-0.1
								c0,0,0-0.1-0.1-0.1c-0.1-0.2-0.2-0.3-0.3-0.5c-0.1-0.1-0.2-0.3-0.3-0.4c-0.1-0.1-0.2-0.2-0.3-0.3C58.2,18.1,58.1,18,58,18
								c-0.1,0-0.2,0-0.3,0c-0.1,0-0.1,0.1-0.1,0.1c0,0,0,0.1,0,0.1c0,0,0,0,0-0.1c0,0,0-0.1,0.1-0.1c0.1-0.1,0.2-0.1,0.3-0.1
								c0.1,0,0.3,0,0.4,0.1c0.1,0.1,0.3,0.2,0.4,0.3c0.1,0.1,0.3,0.2,0.4,0.4c0.1,0.1,0.3,0.3,0.4,0.5c0,0,0.1,0.1,0.1,0.1l0,0.1
								l0.1,0.1l0,0.1c0,0,0,0,0,0.1l-0.1,0.1c0,0,0,0.1-0.1,0.1c-0.2,0.3-0.2,0.7-0.2,1c0,0.3,0.1,0.6,0.3,0.8
								c0.1,0.2,0.3,0.4,0.4,0.5C60.2,22.2,60.3,22.2,60.4,22.3C60.3,22.3,60.4,22.3,60.4,22.3z"/>
						</g>
					</g>
					<g>
						<path class="st0" d="M60,23.2c0,0,0.2,0.6,1.1,1.4h0c0.2,0.2,0.4,0.3,0.6,0.5c0.9,0.7,9.7,4.4,11.1,4.3
							c1.4-0.2,2.6-4.8,2.7-5.3c0.4-3,1.6-12.3,1.6-12.3C73.8,1.6,61.9,6.8,60.5,7.8C59.1,8.8,60,23.2,60,23.2z"/>
						<path class="st14" d="M61.1,24.6c0.2,0.2,0.4,0.3,0.6,0.5c0.9,0.7,9.7,4.4,11.1,4.3c1.4-0.2,2.6-4.8,2.7-5.3
							c-0.8,2-1.8,4.9-2.8,4.8C71.3,28.7,62.1,25.1,61.1,24.6z"/>
					</g>
					<g>
						<path class="st16" d="M77.1,14.7c0,0-1.6-2.2-2.5-1.3c-0.9,0.9-0.5,0.9-0.5,0.9L77.1,14.7z"/>
						<path class="st16" d="M64.9,13.5c0,0,4.2-1.9,4.8-0.2c0.3,1-0.3,1.2-0.3,1.2L64.9,13.5z"/>
						<g>
							<path class="st17" d="M66,17c0,0.9,0.5,1.7,1.1,1.7c0.6,0,1.1-0.8,1.1-1.7c0-0.9-0.5-1.7-1.1-1.7C66.5,15.3,66,16,66,17z"/>
							<path class="st4" d="M65,16c0,0,0.4,0.6,1,0.8c0.6,0.3,1.3,0.1,1.3,0.1s-0.4-0.6-1-0.8C65.7,15.9,65,16,65,16z"/>
						</g>
						<g>
							<path class="st17" d="M73.5,17.5c0,0.7,0.4,1.3,0.8,1.3c0.4,0,0.8-0.6,0.8-1.3c0-0.7-0.4-1.3-0.8-1.3
								C73.8,16.2,73.5,16.8,73.5,17.5z"/>
							<path class="st4" d="M72.8,16.9c0,0,0.3,0.4,0.7,0.6c0.5,0.2,0.9,0.1,0.9,0.1s-0.3-0.4-0.7-0.6
								C73.2,16.8,72.8,16.9,72.8,16.9z"/>
						</g>
						<g>
							<path class="st1" d="M70.9,20.9c-0.3-0.1-0.5-0.2-0.8-0.2c0.3,0.6,0.8,1.1,1.4,1.4c0,0,0.1,0,0.2,0c0.1,0,0.1,0,0.2-0.1
								c0.4-0.2,0.7-0.5,0.9-0.8c0.1-0.1,0.1-0.1,0.1-0.2c0.1-0.3-0.1-0.2-0.3-0.1c-0.2,0.1-0.4,0.1-0.6,0.1
								C71.7,21.1,71.3,21,70.9,20.9z"/>
							<path class="st18" d="M71.6,21.9c0.2-0.1,0.3-0.3,0.5-0.4c0.2-0.2,0.4-0.4,0.6-0.6c-0.9-0.6-0.9-1.5-0.8-2.5
								c0-0.5,0.1-0.9,0.4-1.3c0.1-0.2,0.3-0.4,0.4-0.6c0.1-0.1,0.2-0.2,0.3-0.3c0.1-0.1,0.2-0.1,0.3-0.2c-0.1,0.1-0.1,0.1-0.1,0.2
								c-0.1,0.2-0.3,0.3-0.4,0.5c-0.1,0.2-0.2,0.4-0.3,0.6c-0.2,0.4-0.2,0.8-0.3,1.2c0,0.4,0,0.8,0.2,1.2c0.2,0.4,0.5,0.9,0.9,1.1
								c0,0-0.6,0.7-0.7,0.7c-0.2,0.1-0.3,0.3-0.5,0.4c-0.2,0.1-0.4,0.2-0.6,0.2c-0.1,0-0.1,0-0.2-0.1c0,0,0.1-0.1,0.1-0.1
								c0,0,0,0,0,0C71.6,22,71.6,21.9,71.6,21.9z"/>
						</g>
						<g>
							<path class="st1" d="M68.5,26.1c0.8,0.4,1.8,0.4,2.6,0.1c-0.3,0.4-0.7,0.7-1.2,0.6C69.4,26.8,68.8,26.5,68.5,26.1z"/>
						</g>
						<path class="st1" d="M74.2,21.2c0.1,0.4,0.9,0.4,1.8,0.1c0.8-0.3,1.4-0.9,1.3-1.2c-0.1-0.4-0.9-0.4-1.8-0.1
							C74.6,20.3,74.1,20.9,74.2,21.2z"/>
						<path class="st1" d="M63.5,19.5c-0.1,0.6,0.8,1.3,2.1,1.6c1.3,0.3,2.4,0.1,2.6-0.4c0.1-0.6-0.8-1.3-2.1-1.6
							C64.8,18.8,63.7,19,63.5,19.5z"/>
						<path class="st19" d="M73,23.5c0,0-2.4-0.7-6.4,0.1c0,0,1,2.6,3.3,2.4C72.2,25.8,73,23.5,73,23.5z"/>
					</g>
					<g>
						<path class="st20" d="M55.8,11.2c0.4,2.8,1.1,5.9,1.1,5.9c0.1-0.6,0.6-1.1,0.6-1.1c2-0.6,3,4.1,3,4.1l0.7-6.2
							c0,0,1.6-1.3,1.9-1.5c0.3-0.2,1.2-4.8,1.2-4.8c0.7,0.5,4,2.4,4.1,2.4l-0.7-1.6c1,1,6.4,4.1,6.4,4.1l0.2-1.4
							c2.2,1.1,2.1,6.6,2.1,6.6s2.9-3.4,3.5-5.5c0.2-0.8,0-1.9-0.4-3.1c-0.7-2-2-4.3-2.8-5.7C75.3,0.9,65.6,0,64.4,0
							c-1.1,0-3.2,2.9-3.2,2.9s-5,3.3-5.6,4.1C55.3,7.3,55.5,9.2,55.8,11.2z"/>
						<path class="st16" d="M55.8,11.2c1-0.7,1.9-1.5,2.7-2.4c0.1,0.5,0.3,1,0.6,1.5c1.5-1.7,2.8-3.5,3.9-5.5c0.3,0.5,0.6,1,0.7,1.5
							c1-0.7,1.9-1.7,2.3-2.8c1.2,1.3,2.6,2.4,4.3,3c-0.1-0.7-0.2-1.4-0.2-2.2c1.5,2,3.5,3.6,5.8,4.6c0.1-0.4,0.2-0.8,0.2-1.1
							C77,9,77.8,10,78.8,11c0.3-0.6,0.6-1.3,0.7-2c-0.3-0.9-0.8-1.8-1.2-2.7c0,0,0,0,0,0c-0.6-1.1-1.2-2.2-1.6-3
							C75.3,0.9,65.6,0,64.4,0c-1.1,0-3.2,2.9-3.2,2.9s-2,1.3-3.7,2.5c-0.9,0.7-1.7,1.3-2,1.6C55.3,7.3,55.5,9.2,55.8,11.2z"/>
						<path class="st21" d="M57.6,5.4C60,4.9,62.2,3.8,64,2.2c0.1,0.3,0.3,0.7,0.4,1C65.2,3,66,2.4,66.5,1.6c0.9,0.8,1.9,1.5,2.9,2
							c0.1-0.5,0.1-1.1,0.2-1.6c1.7,1.4,3.5,2.7,5.5,3.7c0.1-0.5,0.1-1-0.2-1.5c1,0.9,2.1,1.5,3.3,2c-0.6-1.1-1.2-2.2-1.6-3
							C75.3,0.9,65.6,0,64.4,0c-1.1,0-3.2,2.9-3.2,2.9S59.2,4.2,57.6,5.4z"/>
					</g>
				</g>
			</g>
		</g>
	</g>
</g>
<polygon class="st22" points="129.5,13.5 93.1,18.5 129.5,32.4 "/>
</svg>
