<?xml version="1.0" encoding="utf-8"?>
<!-- Generator: Adobe Illustrator 26.3.1, SVG Export Plug-In . SVG Version: 6.00 Build 0)  -->
<svg version="1.1" id="Calque_1" xmlns="http://www.w3.org/2000/svg" xmlns:xlink="http://www.w3.org/1999/xlink" x="0px" y="0px"
	 viewBox="0 0 1024 1024" style="enable-background:new 0 0 1024 1024;" xml:space="preserve">
<style type="text/css">
	.st0{fill:#FFFFFF;}
	.st1{fill:#F9C9C0;}
	.st2{fill:#4BB3FD;}
	.st3{fill:#646E78;}
	.st4{opacity:0.5;fill:#646E78;enable-background:new    ;}
	.st5{opacity:0.5;fill:#F9C9C0;enable-background:new    ;}
	.st6{fill:#B26836;}
	.st7{opacity:0.5;fill:#B26836;enable-background:new    ;}
	.st8{fill:#EBE6EF;}
</style>
<path class="st0" d="M849.9,1024H174.1C77.9,1024,0,946.1,0,849.9V174.1C0,77.9,77.9,0,174.1,0h675.8C946.1,0,1024,77.9,1024,174.1
	v675.8C1024,946.1,946.1,1024,849.9,1024z"/>
<g>
	<path class="st1" d="M649.3,342.1l-0.8,23.5l-1.2,32.5l-0.9,25.8c-2.6,74.3-64.9,132.4-139.1,129.9c-25.7-0.9-50.5-9.1-71.7-23.7
		c-6.1-4.2-11.8-8.8-17-13.9c-25.1-24.2-39.8-57.3-41-92.2l-0.9-25.8l-1.1-30.6l-1.2-33.2c88.2-3.7,158.6-58.6,191.4-135.7
		C640,251.6,636.2,297.6,649.3,342.1z"/>
	<rect x="379.4" y="332.9" class="st2" width="104.9" height="65.3"/>
	<rect x="547.4" y="332.9" class="st2" width="104.9" height="65.3"/>
	<path class="st3" d="M793,760.9v62.6c0,17.2-12.9,31.6-29.9,33.6l-65.4,7.6c-17.9,2-35.5,6.6-52.1,13.5
		c-85.6,35.7-181.9,35.9-267.5,0.3l-0.4-0.2c-17.4-7.2-35.7-11.9-54.4-14.2l-62.1-7.1c-17.1-2-30-16.4-30-33.6v-62.6
		c0-103.5,83.9-187.3,187.3-187.3h17.2c0.7,42.2,35.6,75.8,77.8,75.1c41.2-0.7,74.4-34,75.1-75.1h17.2
		C709.2,573.6,793,657.5,793,760.9z"/>
	<path class="st1" d="M588.5,530.1v43.4c-0.7,42.2-35.6,75.8-77.8,75.1c-41.2-0.7-74.4-34-75.1-75.1v-43.4
		C481.6,561.9,542.5,561.9,588.5,530.1z"/>
	<path class="st4" d="M437.1,588.4c-63.5,16-124,58-141.4,87.6C274.4,712.3,279,859.2,279,859.2l-18.1-2
		c-17.1-2-29.9-16.5-29.9-33.7v-62.6c-0.1-103.4,83.6-187.3,187-187.3c0.1,0,0.3,0,0.4,0h17.2c0,2.9,0.2,5.6,0.5,8.5
		c0,0.7,0.2,1.3,0.3,2l0.2,1.3C436.8,586.5,437,587.4,437.1,588.4z"/>
	<path class="st5" d="M588.5,530.1c0,0-30.5,48.9-107.8,51.8c-14.7,0.6-29.3,2.8-43.6,6.5c-0.2-1-0.4-2-0.5-2.9l-0.2-1.3
		c-0.1-0.7-0.2-1.3-0.3-2c-0.4-2.8-0.5-5.6-0.5-8.5v-43.4C481.6,561.9,542.5,561.9,588.5,530.1z"/>
	<path class="st6" d="M374.3,334.5c88.2-3.7,158.6-58.6,191.4-135.7c74,52.8,70,98.9,83.5,143.4c32.4-44.4,26.1-132.6,3.4-167.4
		c-18.9-29-53.4-38.3-53.4-38.3c-49.2-11.9-99.5,5.7-124.4,16.9c-10.3,4.6-22.4,3.5-31.6-3.1l-35.9-25.6c-13-9.8-31.6-7.1-41.4,6
		c-0.2,0.3-0.4,0.5-0.6,0.8c-15.2,22.6-25,48.5-29,75.4c-11.1,74.2,38.1,127.3,38.1,127.3L374.3,334.5z"/>
	<path class="st7" d="M638.2,158.2c-4.6-2.3-9.5-4.3-14.5-5.7C574.5,140.6,517,164.5,492,175.8c-10.3,4.6-29.8,9.5-39,2.9L417.2,153
		c-13-9.8-31.6-7.1-41.3,6c-0.2,0.3-0.4,0.5-0.6,0.8c-12.3,17.6-16.8,38-21.6,69.5c-6.8,45.4,9,82.8,22.3,105.1h-1.6l0.3-0.3
		c0,0-49.3-53-38.1-127.3c3.9-26.9,13.8-52.7,29-75.3c9.3-13.4,27.7-16.7,41.1-7.4c0.3,0.2,0.5,0.4,0.8,0.6l35.8,25.5
		c9.3,6.6,21.3,7.8,31.6,3.1c25-11.3,75.2-28.9,124.4-16.9C613.6,141,626.9,148.4,638.2,158.2z"/>
	<path class="st3" d="M484.3,406.1H379.4c-4.4,0-7.9-3.6-7.9-7.9v-65.3c0-4.4,3.6-7.9,7.9-7.9h104.9c4.4,0,7.9,3.6,7.9,7.9v65.3
		C492.2,402.6,488.6,406.1,484.3,406.1L484.3,406.1z M387.2,390.3h89.1v-49.6h-89.1V390.3z"/>
	<path class="st3" d="M652.3,406.1H547.4c-4.4,0-7.9-3.6-7.9-7.9v-65.3c0-4.4,3.6-7.9,7.9-7.9h104.9c4.4,0,7.9,3.6,7.9,7.9v65.3
		C660.1,402.6,656.7,406.1,652.3,406.1L652.3,406.1z M555.2,390.3h89.1v-49.6h-89.1V390.3z"/>
	<path class="st3" d="M547.4,366.7h-63.1c-4.4,0-7.9-3.6-7.9-7.9s3.6-7.9,7.9-7.9h63.1c4.4,0,7.9,3.6,7.9,7.9
		C555.2,363.2,551.7,366.7,547.4,366.7z"/>
	<path class="st8" d="M536.9,809c-1.7,0-3.3-0.5-4.7-1.5l-49.6-36.5c-3.5-2.6-4.3-7.6-1.7-11.1c0.4-0.6,1.1-1.2,1.7-1.7l49.6-36.5
		c3.5-2.6,8.5-1.9,11.1,1.7c2.6,3.5,1.9,8.5-1.7,11.1l0,0l-41,30.2l41,30.2c3.5,2.6,4.3,7.5,1.7,11.1
		C541.7,807.7,539.4,809,536.9,809L536.9,809z"/>
	<path class="st8" d="M677.3,809c-4.4,0-7.9-3.6-7.9-7.8c0-2.5,1.2-4.9,3.2-6.4l41-30.2l-41-30.2c-3.4-2.8-3.9-7.7-1.2-11.1
		c2.6-3.2,7.2-3.9,10.6-1.6l49.6,36.5c3.5,2.6,4.3,7.5,1.7,11.1c-0.4,0.6-1.1,1.2-1.7,1.7L682,807.4C680.6,808.4,679,809,677.3,809z
		"/>
	<path class="st8" d="M594.7,809c-0.8,0-1.6-0.2-2.4-0.4c-4.1-1.3-6.4-5.8-5.1-9.9l23.7-73.2c1.4-4.1,5.9-6.3,10.1-4.9
		c4,1.4,6.2,5.7,5,9.7l-23.6,73.1C601.2,806.7,598.1,809,594.7,809z"/>
</g>
</svg>
