<?xml version="1.0" encoding="utf-8"?>
<!-- Generator: Adobe Illustrator 26.3.1, SVG Export Plug-In . SVG Version: 6.00 Build 0)  -->
<svg version="1.1" id="Calque_1" xmlns="http://www.w3.org/2000/svg" xmlns:xlink="http://www.w3.org/1999/xlink" x="0px" y="0px"
	 viewBox="0 0 1024 1024" style="enable-background:new 0 0 1024 1024;" xml:space="preserve">
<style type="text/css">
	.st0{fill:#F9C9C0;}
	.st1{fill:#4BB3FD;}
	.st2{fill:#646E78;}
	.st3{opacity:0.5;fill:#646E78;enable-background:new    ;}
	.st4{opacity:0.5;fill:#F9C9C0;enable-background:new    ;}
	.st5{fill:#B26836;}
	.st6{opacity:0.5;fill:#B26836;enable-background:new    ;}
	.st7{fill:#EBE6EF;}
</style>
<g>
	<path class="st0" d="M575.5,433.4l-0.4,10.9l-0.5,15.1l-0.4,12c-1.2,34.4-30,61.3-64.4,60.1c-11.9-0.4-23.4-4.2-33.2-11
		c-2.8-1.9-5.4-4.1-7.9-6.4c-11.6-11.2-18.4-26.5-19-42.6l-0.4-12l-0.5-14.1l-0.5-15.3c40.8-1.7,73.4-27.1,88.6-62.8
		C571.2,391.5,569.4,412.8,575.5,433.4z"/>
	<rect x="450.6" y="429.1" class="st1" width="48.5" height="30.2"/>
	<rect x="528.4" y="429.1" class="st1" width="48.5" height="30.2"/>
	<path class="st2" d="M642,627.2v28.9c0,8-6,14.6-13.9,15.5l-30.3,3.5c-8.3,0.9-16.4,3.1-24.1,6.3c-39.6,16.5-84.2,16.6-123.8,0.1
		l-0.2-0.1c-8-3.3-16.5-5.5-25.2-6.6l-28.7-3.3c-7.9-0.9-13.9-7.6-13.9-15.5v-28.9c0-47.9,38.8-86.7,86.7-86.7h8
		c0.3,19.5,16.5,35.1,36,34.8c19.1-0.3,34.4-15.7,34.8-34.8h8C603.2,540.5,642,579.3,642,627.2z"/>
	<path class="st0" d="M547.4,520.4v20.1c-0.3,19.5-16.5,35.1-36,34.8c-19.1-0.3-34.4-15.7-34.8-34.8v-20.1
		C497.9,535.1,526.1,535.1,547.4,520.4z"/>
	<path class="st3" d="M477.4,547.3c-29.4,7.4-57.4,26.8-65.4,40.5c-9.9,16.8-7.8,84.8-7.8,84.8l-8.4-0.9
		c-7.9-0.9-13.9-7.6-13.9-15.6v-28.9c0-47.8,38.7-86.6,86.5-86.7c0,0,0.1,0,0.2,0h8c0,1.3,0.1,2.6,0.2,3.9c0,0.3,0.1,0.6,0.1,0.9
		l0.1,0.6C477.2,546.5,477.3,546.9,477.4,547.3z"/>
	<path class="st4" d="M547.4,520.4c0,0-14.1,22.6-49.9,24c-6.8,0.3-13.6,1.3-20.2,3c-0.1-0.5-0.2-0.9-0.2-1.4l-0.1-0.6
		c0-0.3-0.1-0.6-0.1-0.9c-0.2-1.3-0.2-2.6-0.2-3.9v-20.1C497.9,535.1,526.1,535.1,547.4,520.4z"/>
	<path class="st5" d="M448.3,429.8c40.8-1.7,73.4-27.1,88.6-62.8c34.2,24.4,32.4,45.8,38.6,66.4c15-20.5,12.1-61.4,1.6-77.4
		c-8.7-13.4-24.7-17.7-24.7-17.7c-22.8-5.5-46,2.6-57.6,7.8c-4.8,2.1-10.4,1.6-14.6-1.4l-16.6-11.8c-6-4.5-14.6-3.3-19.1,2.8
		c-0.1,0.1-0.2,0.2-0.3,0.4c-7,10.5-11.6,22.4-13.4,34.9c-5.2,34.3,17.6,58.9,17.6,58.9L448.3,429.8z"/>
	<path class="st6" d="M570.4,348.3c-2.1-1.1-4.4-2-6.7-2.6c-22.8-5.5-49.4,5.5-60.9,10.8c-4.8,2.1-13.8,4.4-18.1,1.3l-16.6-11.9
		c-6-4.5-14.6-3.3-19.1,2.8c-0.1,0.1-0.2,0.2-0.3,0.4c-5.7,8.2-7.8,17.6-10,32.2c-3.1,21,4.2,38.3,10.3,48.6h-0.7l0.1-0.1
		c0,0-22.8-24.5-17.6-58.9c1.8-12.5,6.4-24.4,13.4-34.8c4.3-6.2,12.8-7.7,19-3.4c0.1,0.1,0.2,0.2,0.4,0.3l16.6,11.8
		c4.3,3.1,9.9,3.6,14.6,1.4c11.5-5.2,34.8-13.4,57.6-7.8C559,340.3,565.2,343.7,570.4,348.3z"/>
	<path class="st2" d="M499.2,463h-48.5c-2,0-3.7-1.6-3.7-3.7v-30.2c0-2,1.6-3.7,3.7-3.7h48.5c2,0,3.7,1.6,3.7,3.7v30.2
		C502.8,461.4,501.2,463,499.2,463L499.2,463z M454.3,455.7h41.2v-22.9h-41.2V455.7z"/>
	<path class="st2" d="M576.9,463h-48.5c-2,0-3.7-1.6-3.7-3.7v-30.2c0-2,1.6-3.7,3.7-3.7h48.5c2,0,3.7,1.6,3.7,3.7v30.2
		C580.5,461.4,578.9,463,576.9,463L576.9,463z M532,455.7h41.2v-22.9H532V455.7z"/>
	<path class="st2" d="M528.4,444.8h-29.2c-2,0-3.7-1.6-3.7-3.7s1.6-3.7,3.7-3.7h29.2c2,0,3.7,1.6,3.7,3.7
		C532,443.1,530.4,444.8,528.4,444.8z"/>
	<path class="st7" d="M523.5,649.4c-0.8,0-1.5-0.2-2.2-0.7l-23-16.9c-1.6-1.2-2-3.5-0.8-5.1c0.2-0.3,0.5-0.5,0.8-0.8l23-16.9
		c1.6-1.2,3.9-0.9,5.1,0.8c1.2,1.6,0.9,3.9-0.8,5.1l0,0l-19,14l19,14c1.6,1.2,2,3.5,0.8,5.1C525.7,648.8,524.7,649.4,523.5,649.4
		L523.5,649.4z"/>
	<path class="st7" d="M588.5,649.4c-2,0-3.7-1.6-3.7-3.6c0-1.2,0.5-2.3,1.5-3l19-14l-19-14c-1.6-1.3-1.8-3.5-0.6-5.2
		c1.2-1.5,3.3-1.8,4.9-0.7l23,16.9c1.6,1.2,2,3.5,0.8,5.1c-0.2,0.3-0.5,0.6-0.8,0.8l-23,16.9C590,649.1,589.3,649.4,588.5,649.4z"/>
	<path class="st7" d="M550.3,649.4c-0.4,0-0.7-0.1-1.1-0.2c-1.9-0.6-3-2.7-2.4-4.6l11-33.9c0.7-1.9,2.7-2.9,4.7-2.3
		c1.9,0.7,2.9,2.6,2.3,4.5l-10.9,33.8C553.3,648.4,551.8,649.4,550.3,649.4z"/>
</g>
</svg>
